<svg width="565" height="223" viewBox="0 0 565 223" fill="none" xmlns="http://www.w3.org/2000/svg">
<path fill-rule="evenodd" clip-rule="evenodd" d="M21 60.9998C9.9543 60.9998 1 69.9541 1 80.9998V202C1 213.045 9.95431 222 21 222H230C241.046 222 250 213.045 250 202V144.366L290.209 105.004C291.612 103.632 290.404 101.271 288.471 101.604L250 108.23V80.9998C250 69.9541 241.046 60.9998 230 60.9998H21Z" fill="url(#paint0_radial_20_742)" fill-opacity="0.5"/>
<path d="M250 144.366L249.65 144.009L249.5 144.156V144.366H250ZM290.209 105.004L290.559 105.362L290.209 105.004ZM288.471 101.604L288.556 102.097L288.471 101.604ZM250 108.23H249.5V108.824L250.085 108.723L250 108.23ZM1.5 80.9998C1.5 70.2302 10.2304 61.4998 21 61.4998V60.4998C9.67816 60.4998 0.5 69.6779 0.5 80.9998H1.5ZM1.5 202V80.9998H0.5V202H1.5ZM21 221.5C10.2305 221.5 1.5 212.769 1.5 202H0.5C0.5 213.322 9.67817 222.5 21 222.5V221.5ZM230 221.5H21V222.5H230V221.5ZM249.5 202C249.5 212.769 240.77 221.5 230 221.5V222.5C241.322 222.5 250.5 213.322 250.5 202H249.5ZM249.5 144.366V202H250.5V144.366H249.5ZM289.86 104.647L249.65 144.009L250.35 144.724L290.559 105.362L289.86 104.647ZM288.556 102.097C290.006 101.847 290.911 103.618 289.86 104.647L290.559 105.362C292.312 103.646 290.803 100.695 288.386 101.111L288.556 102.097ZM250.085 108.723L288.556 102.097L288.386 101.111L249.915 107.737L250.085 108.723ZM249.5 80.9998V108.23H250.5V80.9998H249.5ZM230 61.4998C240.77 61.4998 249.5 70.2302 249.5 80.9998H250.5C250.5 69.6779 241.322 60.4998 230 60.4998V61.4998ZM21 61.4998H230V60.4998H21V61.4998Z" fill="url(#paint1_linear_20_742)"/>
<circle cx="124" cy="143" r="41" fill="url(#paint2_radial_20_742)"/>
<g opacity="0.8" filter="url(#filter0_f_20_742)">
<path fill-rule="evenodd" clip-rule="evenodd" d="M535.723 9C546.769 9 555.723 17.9543 555.723 29V105C555.723 116.046 546.769 125 535.723 125H396.319C385.274 125 376.319 116.046 376.319 105V57.407L348.63 30.3016C347.228 28.929 348.435 26.5684 350.369 26.9014L376.319 31.3709V29C376.319 17.9543 385.274 9 396.319 9H535.723Z" fill="url(#paint3_radial_20_742)" fill-opacity="0.5"/>
<path d="M376.319 57.407L376.669 57.0498L376.819 57.1968V57.407H376.319ZM348.63 30.3016L348.98 29.9443L348.63 30.3016ZM350.369 26.9014L350.454 26.4087L350.369 26.9014ZM376.319 31.3709H376.819V31.9644L376.234 31.8637L376.319 31.3709ZM555.223 29C555.223 18.2304 546.493 9.5 535.723 9.5V8.5C547.045 8.5 556.223 17.6782 556.223 29H555.223ZM555.223 105V29H556.223V105H555.223ZM535.723 124.5C546.493 124.5 555.223 115.77 555.223 105H556.223C556.223 116.322 547.045 125.5 535.723 125.5V124.5ZM396.319 124.5H535.723V125.5H396.319V124.5ZM376.819 105C376.819 115.77 385.55 124.5 396.319 124.5V125.5C384.997 125.5 375.819 116.322 375.819 105H376.819ZM376.819 57.407V105H375.819V57.407H376.819ZM348.98 29.9443L376.669 57.0498L375.97 57.7643L348.281 30.6589L348.98 29.9443ZM350.284 27.3942C348.834 27.1444 347.929 28.9149 348.98 29.9443L348.281 30.6589C346.528 28.9432 348.037 25.9924 350.454 26.4087L350.284 27.3942ZM376.234 31.8637L350.284 27.3942L350.454 26.4087L376.404 30.8782L376.234 31.8637ZM376.819 29V31.3709H375.819V29H376.819ZM396.319 9.5C385.55 9.5 376.819 18.2304 376.819 29H375.819C375.819 17.6782 384.997 8.5 396.319 8.5V9.5ZM535.723 9.5H396.319V8.5H535.723V9.5Z" fill="url(#paint4_linear_20_742)"/>
<circle cx="461" cy="68" r="27" fill="url(#paint5_radial_20_742)"/>
</g>
<defs>
<filter id="filter0_f_20_742" x="339.52" y="0.5" width="224.703" height="133" filterUnits="userSpaceOnUse" color-interpolation-filters="sRGB">
<feFlood flood-opacity="0" result="BackgroundImageFix"/>
<feBlend mode="normal" in="SourceGraphic" in2="BackgroundImageFix" result="shape"/>
<feGaussianBlur stdDeviation="4" result="effect1_foregroundBlur_20_742"/>
</filter>
<radialGradient id="paint0_radial_20_742" cx="0" cy="0" r="1" gradientUnits="userSpaceOnUse" gradientTransform="translate(287 -1.00025) rotate(143.582) scale(253.508 215.22)">
<stop stop-color="#4257A0"/>
<stop offset="1" stop-color="#4257A0" stop-opacity="0"/>
</radialGradient>
<linearGradient id="paint1_linear_20_742" x1="143.92" y1="60.9998" x2="143.92" y2="222" gradientUnits="userSpaceOnUse">
<stop stop-color="#4257A0"/>
<stop offset="1" stop-color="#4257A0" stop-opacity="0.6"/>
</linearGradient>
<radialGradient id="paint2_radial_20_742" cx="0" cy="0" r="1" gradientUnits="userSpaceOnUse" gradientTransform="translate(124 143) rotate(90) scale(41)">
<stop stop-color="#EAA16D"/>
<stop offset="1" stop-color="#EAA16D" stop-opacity="0"/>
</radialGradient>
<radialGradient id="paint3_radial_20_742" cx="0" cy="0" r="1" gradientUnits="userSpaceOnUse" gradientTransform="translate(392.867 -50.0807) rotate(51.7397) scale(199.117 168.626)">
<stop stop-color="#4257A0"/>
<stop offset="1" stop-color="#4257A0" stop-opacity="0"/>
</radialGradient>
<linearGradient id="paint4_linear_20_742" x1="453.861" y1="9" x2="453.861" y2="125" gradientUnits="userSpaceOnUse">
<stop stop-color="#4257A0"/>
<stop offset="1" stop-color="#4257A0" stop-opacity="0.6"/>
</linearGradient>
<radialGradient id="paint5_radial_20_742" cx="0" cy="0" r="1" gradientUnits="userSpaceOnUse" gradientTransform="translate(461 68) rotate(90) scale(27)">
<stop stop-color="#92E4DD"/>
<stop offset="1" stop-color="#92E4DD" stop-opacity="0"/>
</radialGradient>
</defs>
</svg>
