<svg width="200" height="74" viewBox="0 0 200 74" fill="none" xmlns="http://www.w3.org/2000/svg">
<g filter="url(#filter0_d_26_1045)">
<path d="M37.6068 43.5069L31.0514 47.1764L32.5153 39.8077L27 34.7069L34.4606 33.8221L37.6068 27L40.753 33.8221L48.2136 34.7069L42.6983 39.8077L44.1622 47.1764L37.6068 43.5069Z" fill="white"/>
</g>
<g filter="url(#filter1_d_26_1045)">
<path d="M68.8204 43.5069L62.2651 47.1764L63.7289 39.8077L58.2136 34.7069L65.6743 33.8221L68.8204 27L71.9666 33.8221L79.4272 34.7069L73.9119 39.8077L75.3758 47.1764L68.8204 43.5069Z" fill="white"/>
</g>
<g filter="url(#filter2_d_26_1045)">
<path d="M100.034 43.5069L93.4787 47.1764L94.9426 39.8077L89.4272 34.7069L96.8879 33.8221L100.034 27L103.18 33.8221L110.641 34.7069L105.126 39.8077L106.589 47.1764L100.034 43.5069Z" fill="white"/>
</g>
<g filter="url(#filter3_d_26_1045)">
<path d="M131.248 43.5069L124.692 47.1764L126.156 39.8077L120.641 34.7069L128.102 33.8221L131.248 27L134.394 33.8221L141.854 34.7069L136.339 39.8077L137.803 47.1764L131.248 43.5069Z" fill="white"/>
</g>
<g filter="url(#filter4_d_26_1045)">
<path d="M162.461 43.5069L155.906 47.1764L157.37 39.8077L151.854 34.7069L159.315 33.8221L162.461 27L165.607 33.8221L173.068 34.7069L167.553 39.8077L169.017 47.1764L162.461 43.5069Z" fill="white"/>
</g>
<defs>
<filter id="filter0_d_26_1045" x="0.975582" y="0.975582" width="73.2625" height="72.2251" filterUnits="userSpaceOnUse" color-interpolation-filters="sRGB">
<feFlood flood-opacity="0" result="BackgroundImageFix"/>
<feColorMatrix in="SourceAlpha" type="matrix" values="0 0 0 0 0 0 0 0 0 0 0 0 0 0 0 0 0 0 127 0" result="hardAlpha"/>
<feOffset/>
<feGaussianBlur stdDeviation="13.0122"/>
<feComposite in2="hardAlpha" operator="out"/>
<feColorMatrix type="matrix" values="0 0 0 0 0.572549 0 0 0 0 0.894118 0 0 0 0 0.866667 0 0 0 1 0"/>
<feBlend mode="normal" in2="BackgroundImageFix" result="effect1_dropShadow_26_1045"/>
<feBlend mode="normal" in="SourceGraphic" in2="effect1_dropShadow_26_1045" result="shape"/>
</filter>
<filter id="filter1_d_26_1045" x="32.1892" y="0.975582" width="73.2625" height="72.2251" filterUnits="userSpaceOnUse" color-interpolation-filters="sRGB">
<feFlood flood-opacity="0" result="BackgroundImageFix"/>
<feColorMatrix in="SourceAlpha" type="matrix" values="0 0 0 0 0 0 0 0 0 0 0 0 0 0 0 0 0 0 127 0" result="hardAlpha"/>
<feOffset/>
<feGaussianBlur stdDeviation="13.0122"/>
<feComposite in2="hardAlpha" operator="out"/>
<feColorMatrix type="matrix" values="0 0 0 0 0.572549 0 0 0 0 0.894118 0 0 0 0 0.866667 0 0 0 1 0"/>
<feBlend mode="normal" in2="BackgroundImageFix" result="effect1_dropShadow_26_1045"/>
<feBlend mode="normal" in="SourceGraphic" in2="effect1_dropShadow_26_1045" result="shape"/>
</filter>
<filter id="filter2_d_26_1045" x="63.4028" y="0.975582" width="73.2625" height="72.2251" filterUnits="userSpaceOnUse" color-interpolation-filters="sRGB">
<feFlood flood-opacity="0" result="BackgroundImageFix"/>
<feColorMatrix in="SourceAlpha" type="matrix" values="0 0 0 0 0 0 0 0 0 0 0 0 0 0 0 0 0 0 127 0" result="hardAlpha"/>
<feOffset/>
<feGaussianBlur stdDeviation="13.0122"/>
<feComposite in2="hardAlpha" operator="out"/>
<feColorMatrix type="matrix" values="0 0 0 0 0.572549 0 0 0 0 0.894118 0 0 0 0 0.866667 0 0 0 1 0"/>
<feBlend mode="normal" in2="BackgroundImageFix" result="effect1_dropShadow_26_1045"/>
<feBlend mode="normal" in="SourceGraphic" in2="effect1_dropShadow_26_1045" result="shape"/>
</filter>
<filter id="filter3_d_26_1045" x="94.6165" y="0.975582" width="73.2625" height="72.2251" filterUnits="userSpaceOnUse" color-interpolation-filters="sRGB">
<feFlood flood-opacity="0" result="BackgroundImageFix"/>
<feColorMatrix in="SourceAlpha" type="matrix" values="0 0 0 0 0 0 0 0 0 0 0 0 0 0 0 0 0 0 127 0" result="hardAlpha"/>
<feOffset/>
<feGaussianBlur stdDeviation="13.0122"/>
<feComposite in2="hardAlpha" operator="out"/>
<feColorMatrix type="matrix" values="0 0 0 0 0.572549 0 0 0 0 0.894118 0 0 0 0 0.866667 0 0 0 1 0"/>
<feBlend mode="normal" in2="BackgroundImageFix" result="effect1_dropShadow_26_1045"/>
<feBlend mode="normal" in="SourceGraphic" in2="effect1_dropShadow_26_1045" result="shape"/>
</filter>
<filter id="filter4_d_26_1045" x="125.83" y="0.975582" width="73.2625" height="72.2251" filterUnits="userSpaceOnUse" color-interpolation-filters="sRGB">
<feFlood flood-opacity="0" result="BackgroundImageFix"/>
<feColorMatrix in="SourceAlpha" type="matrix" values="0 0 0 0 0 0 0 0 0 0 0 0 0 0 0 0 0 0 127 0" result="hardAlpha"/>
<feOffset/>
<feGaussianBlur stdDeviation="13.0122"/>
<feComposite in2="hardAlpha" operator="out"/>
<feColorMatrix type="matrix" values="0 0 0 0 0.572549 0 0 0 0 0.894118 0 0 0 0 0.866667 0 0 0 1 0"/>
<feBlend mode="normal" in2="BackgroundImageFix" result="effect1_dropShadow_26_1045"/>
<feBlend mode="normal" in="SourceGraphic" in2="effect1_dropShadow_26_1045" result="shape"/>
</filter>
</defs>
</svg>
