<svg width="292" height="163" viewBox="0 0 292 163" fill="none" xmlns="http://www.w3.org/2000/svg">
<path fill-rule="evenodd" clip-rule="evenodd" d="M21 0.999756C9.9543 0.999756 1 9.95406 1 20.9998V142C1 153.045 9.95431 162 21 162H230C241.046 162 250 153.045 250 142V84.3664L290.209 45.0043C291.612 43.6317 290.404 41.2711 288.471 41.6041L250 48.2301V20.9998C250 9.95406 241.046 0.999756 230 0.999756H21Z" fill="url(#paint0_radial_20_744)" fill-opacity="0.5"/>
<path d="M250 84.3664L249.65 84.0091L249.5 84.1561V84.3664H250ZM290.209 45.0043L290.559 45.3616L290.209 45.0043ZM288.471 41.6041L288.556 42.0969L288.471 41.6041ZM250 48.2301H249.5V48.8235L250.085 48.7228L250 48.2301ZM1.5 20.9998C1.5 10.2302 10.2304 1.49976 21 1.49976V0.499756C9.67816 0.499756 0.5 9.67792 0.5 20.9998H1.5ZM1.5 142V20.9998H0.5V142H1.5ZM21 161.5C10.2305 161.5 1.5 152.769 1.5 142H0.5C0.5 153.322 9.67817 162.5 21 162.5V161.5ZM230 161.5H21V162.5H230V161.5ZM249.5 142C249.5 152.769 240.77 161.5 230 161.5V162.5C241.322 162.5 250.5 153.322 250.5 142H249.5ZM249.5 84.3664V142H250.5V84.3664H249.5ZM289.86 44.647L249.65 84.0091L250.35 84.7237L290.559 45.3616L289.86 44.647ZM288.556 42.0969C290.006 41.8471 290.911 43.6175 289.86 44.647L290.559 45.3616C292.312 43.6458 290.803 40.6951 288.386 41.1114L288.556 42.0969ZM250.085 48.7228L288.556 42.0969L288.386 41.1114L249.915 47.7373L250.085 48.7228ZM249.5 20.9998V48.2301H250.5V20.9998H249.5ZM230 1.49976C240.77 1.49976 249.5 10.2302 249.5 20.9998H250.5C250.5 9.67792 241.322 0.499756 230 0.499756V1.49976ZM21 1.49976H230V0.499756H21V1.49976Z" fill="url(#paint1_linear_20_744)"/>
<defs>
<radialGradient id="paint0_radial_20_744" cx="0" cy="0" r="1" gradientUnits="userSpaceOnUse" gradientTransform="translate(287 -61.0002) rotate(143.582) scale(253.508 215.22)">
<stop stop-color="#4257A0"/>
<stop offset="1" stop-color="#4257A0" stop-opacity="0"/>
</radialGradient>
<linearGradient id="paint1_linear_20_744" x1="143.92" y1="0.999756" x2="143.92" y2="162" gradientUnits="userSpaceOnUse">
<stop stop-color="#4257A0"/>
<stop offset="1" stop-color="#4257A0" stop-opacity="0.6"/>
</linearGradient>
</defs>
</svg>
