<svg width="225" height="44" viewBox="0 0 225 44" fill="none" xmlns="http://www.w3.org/2000/svg">
<path d="M217.931 30.6031C216.688 30.6031 215.599 30.3068 214.662 29.7141C213.744 29.1215 213.028 28.2899 212.511 27.2193C212.014 26.1296 211.766 24.8488 211.766 23.3768C211.766 21.8856 212.014 20.6047 212.511 19.5342C213.028 18.4445 213.744 17.6129 214.662 17.0394C215.599 16.4467 216.688 16.1504 217.931 16.1504C219.021 16.1504 219.977 16.3894 220.799 16.8673C221.64 17.3453 222.261 18.0048 222.663 18.846V10.1285H224.985V30.345H222.72V27.7928C222.319 28.6722 221.697 29.3605 220.856 29.8575C220.015 30.3546 219.04 30.6031 217.931 30.6031ZM218.419 28.7391C219.719 28.7391 220.76 28.2803 221.544 27.3627C222.328 26.426 222.72 25.0973 222.72 23.3768C222.72 21.6371 222.328 20.3084 221.544 19.3908C220.76 18.4732 219.719 18.0144 218.419 18.0144C217.1 18.0144 216.048 18.4732 215.264 19.3908C214.5 20.3084 214.117 21.6371 214.117 23.3768C214.117 25.0973 214.5 26.426 215.264 27.3627C216.048 28.2803 217.1 28.7391 218.419 28.7391Z" fill="white"/>
<path d="M201.924 30.6031C199.725 30.6031 197.985 29.9627 196.704 28.6818C195.424 27.3818 194.783 25.623 194.783 23.4054C194.783 21.9716 195.07 20.7099 195.643 19.6202C196.217 18.5114 197.001 17.6607 197.995 17.068C199.008 16.4563 200.174 16.1504 201.493 16.1504C203.386 16.1504 204.868 16.7622 205.938 17.9857C207.009 19.1901 207.544 20.8533 207.544 22.9753V23.8642H197.049C197.125 25.451 197.584 26.6649 198.425 27.5061C199.266 28.3281 200.432 28.7391 201.924 28.7391C202.765 28.7391 203.568 28.6149 204.332 28.3664C205.097 28.0987 205.823 27.6686 206.512 27.0759L207.315 28.7105C206.684 29.3031 205.881 29.7715 204.906 30.1156C203.931 30.4406 202.937 30.6031 201.924 30.6031ZM201.551 17.871C200.232 17.871 199.19 18.282 198.425 19.104C197.66 19.9261 197.211 21.0062 197.077 22.3444H205.537C205.479 20.9297 205.107 19.8305 204.418 19.0467C203.749 18.2629 202.793 17.871 201.551 17.871Z" fill="white"/>
<path d="M189.629 30.6031C187.985 30.6031 186.752 30.173 185.93 29.3127C185.108 28.4333 184.697 27.1715 184.697 25.5275V18.2151H181.973V16.4085H184.697V12.1358H187.02V16.4085H191.436V18.2151H187.02V25.298C187.02 26.3877 187.249 27.2193 187.708 27.7929C188.167 28.3473 188.912 28.6245 189.945 28.6245C190.251 28.6245 190.557 28.5862 190.862 28.5098C191.168 28.4333 191.446 28.3568 191.694 28.2803L192.096 30.0583C191.847 30.1921 191.484 30.3163 191.006 30.431C190.528 30.5457 190.069 30.6031 189.629 30.6031Z" fill="white"/>
<path d="M175.365 12.9387V10.3292H178.233V12.9387H175.365ZM175.652 30.345V16.4085H177.975V30.345H175.652Z" fill="white"/>
<path d="M149.43 30.345V16.4085H151.695V18.7599C152.116 17.9188 152.699 17.2783 153.444 16.8386C154.19 16.3798 155.06 16.1504 156.054 16.1504C158.233 16.1504 159.629 17.0967 160.24 18.9893C160.661 18.1099 161.282 17.4217 162.104 16.9247C162.926 16.4085 163.873 16.1504 164.943 16.1504C168.04 16.1504 169.589 17.9857 169.589 21.6562V30.345H167.266V21.7709C167.266 20.49 167.037 19.5533 166.578 18.9607C166.138 18.3489 165.402 18.043 164.37 18.043C163.242 18.043 162.343 18.4445 161.674 19.2474C161.005 20.0503 160.671 21.1209 160.671 22.4591V30.345H158.348V21.7709C158.348 20.49 158.118 19.5533 157.66 18.9607C157.22 18.3489 156.484 18.043 155.452 18.043C154.304 18.043 153.396 18.4445 152.727 19.2474C152.077 20.0503 151.752 21.1209 151.752 22.4591V30.345H149.43Z" fill="white"/>
<path d="M140.7 12.9387V10.3292H143.568V12.9387H140.7ZM140.987 30.345V16.4085H143.309V30.345H140.987Z" fill="white"/>
<path d="M135.054 30.6031C133.639 30.6031 132.568 30.1921 131.842 29.37C131.135 28.5289 130.781 27.3149 130.781 25.7282V10.1285H133.104V25.5561C133.104 27.6017 133.916 28.6244 135.541 28.6244C136.019 28.6244 136.449 28.5671 136.832 28.4524L136.774 30.4023C136.182 30.5362 135.608 30.6031 135.054 30.6031Z" fill="white"/>
<path d="M99.207 30.345L105 23.1473L99.5511 16.4085H102.304L106.347 21.5415L110.419 16.4085H113.144L107.695 23.1473L113.488 30.345H110.735L106.319 24.8106L101.96 30.345H99.207Z" fill="white"/>
<path d="M92.1149 30.6031C89.9164 30.6031 88.1768 29.9627 86.8959 28.6818C85.615 27.3818 84.9746 25.623 84.9746 23.4054C84.9746 21.9716 85.2614 20.7099 85.8349 19.6202C86.4084 18.5114 87.1922 17.6607 88.1863 17.068C89.1995 16.4563 90.3657 16.1504 91.6848 16.1504C93.5774 16.1504 95.059 16.7622 96.1295 17.9857C97.2001 19.1901 97.7354 20.8533 97.7354 22.9753V23.8642H87.24C87.3165 25.451 87.7753 26.6649 88.6164 27.5061C89.4576 28.3281 90.6238 28.7391 92.1149 28.7391C92.9561 28.7391 93.759 28.6149 94.5237 28.3664C95.2884 28.0987 96.0148 27.6686 96.7031 27.0759L97.506 28.7105C96.8751 29.3031 96.0722 29.7715 95.0972 30.1156C94.1222 30.4406 93.1281 30.6031 92.1149 30.6031ZM91.7421 17.871C90.423 17.871 89.3811 18.282 88.6164 19.104C87.8518 19.9261 87.4025 21.0062 87.2687 22.3444H95.7281C95.6707 20.9297 95.2979 19.8305 94.6097 19.0467C93.9406 18.2629 92.9847 17.871 91.7421 17.871Z" fill="white"/>
<path d="M77.4232 30.345V18.2151H74.6703V16.4085H77.4232V15.921C77.4232 14.0666 77.882 12.6615 78.7997 11.7057C79.7364 10.7498 81.1702 10.2145 83.1011 10.0998L84.2194 10.0424L84.4202 11.8204L83.1011 11.9064C81.9158 12.002 81.0555 12.3556 80.5202 12.9674C80.0041 13.5791 79.746 14.4681 79.746 15.6343V16.4085H83.7606V18.2151H79.746V30.345H77.4232Z" fill="white"/>
<path d="M66.676 30.6031C65.3187 30.6031 64.143 30.3068 63.1489 29.7141C62.1548 29.1215 61.3805 28.2899 60.8261 27.2193C60.2908 26.1296 60.0232 24.8488 60.0232 23.3768C60.0232 21.9047 60.2908 20.6334 60.8261 19.5629C61.3805 18.4732 62.1548 17.632 63.1489 17.0394C64.143 16.4467 65.3187 16.1504 66.676 16.1504C68.0142 16.1504 69.1804 16.4467 70.1745 17.0394C71.1877 17.632 71.9619 18.4732 72.4972 19.5629C73.0516 20.6334 73.3288 21.9047 73.3288 23.3768C73.3288 24.8488 73.0516 26.1296 72.4972 27.2193C71.9619 28.2899 71.1877 29.1215 70.1745 29.7141C69.1804 30.3068 68.0142 30.6031 66.676 30.6031ZM66.676 28.7391C67.976 28.7391 69.0179 28.2803 69.8017 27.3627C70.5855 26.426 70.9774 25.0973 70.9774 23.3768C70.9774 21.6371 70.5855 20.3084 69.8017 19.3908C69.0179 18.4732 67.976 18.0144 66.676 18.0144C65.3569 18.0144 64.3055 18.4732 63.5217 19.3908C62.757 20.3084 62.3746 21.6371 62.3746 23.3768C62.3746 25.0973 62.757 26.426 63.5217 27.3627C64.3055 28.2803 65.3569 28.7391 66.676 28.7391Z" fill="white"/>
<path d="M50.7741 30.345V16.4085H53.0395V18.9033C53.7851 17.221 55.3145 16.2938 57.6277 16.1217L58.4593 16.0357L58.6313 18.043L57.1688 18.2151C55.8497 18.3298 54.8461 18.7504 54.1579 19.4768C53.4696 20.1842 53.1255 21.1591 53.1255 22.4018V30.345H50.7741Z" fill="white"/>
<path d="M34.0558 35.5067V16.4085H36.3212V18.9033C36.7418 18.043 37.3631 17.3739 38.1852 16.896C39.0263 16.3989 40.0013 16.1504 41.1101 16.1504C42.3527 16.1504 43.4329 16.4467 44.3505 17.0394C45.2872 17.6129 46.0041 18.4445 46.5012 19.5342C47.0174 20.6047 47.2754 21.8856 47.2754 23.3768C47.2754 24.8488 47.0174 26.1296 46.5012 27.2193C46.0041 28.2899 45.2872 29.1215 44.3505 29.7141C43.4329 30.3068 42.3527 30.6031 41.1101 30.6031C40.0396 30.6031 39.0837 30.3641 38.2425 29.8862C37.4014 29.4083 36.7801 28.7487 36.3786 27.9075V35.5067H34.0558ZM40.6226 28.7391C41.9226 28.7391 42.9645 28.2803 43.7483 27.3627C44.5321 26.426 44.924 25.0973 44.924 23.3768C44.924 21.6371 44.5321 20.3084 43.7483 19.3908C42.9645 18.4732 41.9226 18.0144 40.6226 18.0144C39.3227 18.0144 38.2808 18.4732 37.497 19.3908C36.7131 20.3084 36.3212 21.6371 36.3212 23.3768C36.3212 25.0973 36.7131 26.426 37.497 27.3627C38.2808 28.2803 39.3227 28.7391 40.6226 28.7391Z" fill="white"/>
<path d="M21.9371 30.6318C20.7136 30.6318 19.6335 30.3354 18.6967 29.7428C17.7791 29.1502 17.0622 28.309 16.546 27.2193C16.0299 26.1105 15.7718 24.8105 15.7718 23.3194C15.7718 21.8091 16.0299 20.5187 16.546 19.4482C17.0622 18.3585 17.7791 17.5173 18.6967 16.9247C19.6335 16.332 20.7136 16.0357 21.9371 16.0357C22.9312 16.0357 23.8297 16.2556 24.6326 16.6953C25.4356 17.135 26.0378 17.718 26.4392 18.4445V10.1285H30.0237V30.345H26.5253V28.0222C26.1429 28.8252 25.5407 29.4656 24.7187 29.9435C23.8966 30.4023 22.9694 30.6318 21.9371 30.6318ZM22.9408 27.9075C24.0113 27.9075 24.8716 27.5252 25.5216 26.7605C26.1716 25.9767 26.4966 24.8297 26.4966 23.3194C26.4966 21.79 26.1716 20.6525 25.5216 19.907C24.8716 19.1423 24.0113 18.7599 22.9408 18.7599C21.8702 18.7599 21.0099 19.1423 20.3599 19.907C19.7099 20.6525 19.385 21.79 19.385 23.3194C19.385 24.8297 19.7099 25.9767 20.3599 26.7605C21.0099 27.5252 21.8702 27.9075 22.9408 27.9075Z" fill="#EAA16D"/>
<path d="M5.48072 30.6317C4.46751 30.6317 3.55944 30.4406 2.75651 30.0582C1.9727 29.6568 1.35139 29.1215 0.892578 28.4524C0.452881 27.7833 0.233032 27.0281 0.233032 26.187C0.233032 25.1546 0.500674 24.3422 1.03596 23.7495C1.57124 23.1378 2.44108 22.6981 3.64547 22.4304C4.84985 22.1628 6.46526 22.029 8.4917 22.029H9.49535V21.4268C9.49535 20.4709 9.28506 19.7827 8.86448 19.3621C8.4439 18.9415 7.73656 18.7312 6.74246 18.7312C5.95866 18.7312 5.15573 18.8555 4.33369 19.104C3.51165 19.3334 2.68004 19.6967 1.83888 20.1937L0.806551 17.7563C1.3036 17.4121 1.88668 17.1158 2.55578 16.8673C3.244 16.5997 3.9609 16.3989 4.70647 16.2651C5.47117 16.1122 6.18806 16.0357 6.85717 16.0357C8.90272 16.0357 10.4225 16.5136 11.4166 17.4695C12.4107 18.4062 12.9078 19.8687 12.9078 21.8569V30.345H9.5527V28.1083C9.22771 28.8921 8.71154 29.5134 8.0042 29.9722C7.29686 30.4119 6.45571 30.6317 5.48072 30.6317ZM6.2263 28.1656C7.16304 28.1656 7.93729 27.8406 8.54905 27.1906C9.17992 26.5406 9.49535 25.7186 9.49535 24.7245V24.0936H8.52037C6.72335 24.0936 5.47117 24.237 4.76383 24.5238C4.0756 24.7914 3.73149 25.2885 3.73149 26.0149C3.73149 26.6458 3.95134 27.162 4.39104 27.5634C4.83074 27.9649 5.44249 28.1656 6.2263 28.1656Z" fill="#EAA16D"/>
<path d="M121.122 0V43.7091" stroke="#EAA16D" stroke-width="2" stroke-linejoin="bevel"/>
</svg>
